<svg xmlns="http://www.w3.org/2000/svg" width="19" height="17.391" viewBox="0 0 19 17.391">
  <g id="svgexport-6_9_" data-name="svgexport-6 (9)" transform="translate(-1 -2.75)">
    <g id="Layer_2" data-name="Layer 2" transform="translate(1 2.75)">
      <path id="Path_1182" data-name="Path 1182" d="M17.334,3.7H15.1V3.383a.633.633,0,0,0-1.267,0V3.7H7.162V3.383a.633.633,0,1,0-1.267,0V3.7H3.666A2.673,2.673,0,0,0,1,6.366V17.475a2.673,2.673,0,0,0,2.666,2.666H17.334A2.673,2.673,0,0,0,20,17.475V6.366A2.673,2.673,0,0,0,17.334,3.7ZM3.666,4.967H5.9v.317a.633.633,0,1,0,1.267,0V4.967h6.675v.317a.633.633,0,0,0,1.267,0V4.967h2.229a1.4,1.4,0,0,1,1.4,1.4v1.5H2.267v-1.5a1.4,1.4,0,0,1,1.4-1.4ZM17.334,18.9H3.666a1.4,1.4,0,0,1-1.4-1.425V9.134H18.733v8.341a1.4,1.4,0,0,1-1.4,1.425Z" transform="translate(-1 -2.75)"/>
    </g>
  </g>
</svg>
