<svg xmlns="http://www.w3.org/2000/svg" width="24.708" height="19.478" viewBox="0 0 24.708 19.478">
  <g id="svgexport-6_8_" data-name="svgexport-6 (8)" transform="translate(0.15 -47.85)">
    <g id="Group_871" data-name="Group 871" transform="translate(0 48)">
      <g id="Group_870" data-name="Group 870" transform="translate(0 0)">
        <path id="Path_1158" data-name="Path 1158" d="M22.229,61.076h-.872V58.9a2.186,2.186,0,0,0-2.179-2.179H12.64V54.1h.872a2.186,2.186,0,0,0,2.179-2.179V50.179A2.186,2.186,0,0,0,13.511,48H10.9a2.186,2.186,0,0,0-2.179,2.179v1.743A2.186,2.186,0,0,0,10.9,54.1h.872v2.615H5.23A2.186,2.186,0,0,0,3.051,58.9v2.179H2.179A2.186,2.186,0,0,0,0,63.255V65a2.186,2.186,0,0,0,2.179,2.179H4.794A2.186,2.186,0,0,0,6.974,65V63.255a2.186,2.186,0,0,0-2.179-2.179H3.923V58.9A1.311,1.311,0,0,1,5.23,57.589h6.538v3.487H10.9a2.186,2.186,0,0,0-2.179,2.179V65A2.186,2.186,0,0,0,10.9,67.178h2.615A2.186,2.186,0,0,0,15.691,65V63.255a2.186,2.186,0,0,0-2.179-2.179H12.64V57.589h6.538A1.311,1.311,0,0,1,20.485,58.9v2.179h-.872a2.186,2.186,0,0,0-2.179,2.179V65a2.186,2.186,0,0,0,2.179,2.179h2.615A2.186,2.186,0,0,0,24.408,65V63.255A2.186,2.186,0,0,0,22.229,61.076Zm-17.434.872A1.311,1.311,0,0,1,6.1,63.255V65a1.311,1.311,0,0,1-1.308,1.308H2.179A1.311,1.311,0,0,1,.872,65V63.255a1.311,1.311,0,0,1,1.308-1.308Zm8.717,0a1.311,1.311,0,0,1,1.308,1.308V65a1.311,1.311,0,0,1-1.308,1.308H10.9A1.311,1.311,0,0,1,9.589,65V63.255A1.311,1.311,0,0,1,10.9,61.947ZM10.9,53.23a1.311,1.311,0,0,1-1.308-1.308V50.179A1.311,1.311,0,0,1,10.9,48.872h2.615a1.311,1.311,0,0,1,1.308,1.308v1.743a1.311,1.311,0,0,1-1.308,1.308ZM23.536,65a1.311,1.311,0,0,1-1.308,1.308H19.613A1.311,1.311,0,0,1,18.306,65V63.255a1.311,1.311,0,0,1,1.308-1.308h2.615a1.311,1.311,0,0,1,1.308,1.308Z" transform="translate(0 -48)" fill="#353535" stroke="#707070" stroke-width="0.3"/>
      </g>
    </g>
  </g>
</svg>
