<svg xmlns="http://www.w3.org/2000/svg" width="16.425" height="15.937" viewBox="0 0 16.425 15.937">
  <g id="Group_946" data-name="Group 946" transform="translate(-1250.074 -482)">
    <path id="Path_1132" data-name="Path 1132" d="M10.5,14.972l3.417-.011,7.458-7.386a1.548,1.548,0,0,0,0-2.19L20.147,4.156a1.588,1.588,0,0,0-2.188,0L10.5,11.542Zm8.552-9.721,1.23,1.225L19.045,7.7,17.817,6.474l1.234-1.223Zm-7,6.936,4.669-4.625L17.945,8.79l-4.668,4.623-1.229,0v-1.23Z" transform="translate(1244.671 478.282)" fill="#353535"/>
    <path id="Path_1133" data-name="Path 1133" d="M6.049,18.437h10.84a1.55,1.55,0,0,0,1.549-1.549V10.177l-1.549,1.549v5.163H8.494c-.02,0-.041.008-.061.008s-.051-.007-.077-.008H6.049V6.049h5.3L12.9,4.5H6.049A1.55,1.55,0,0,0,4.5,6.049v10.84A1.55,1.55,0,0,0,6.049,18.437Z" transform="translate(1245.574 479.5)" fill="#353535"/>
  </g>
</svg>
