<svg xmlns="http://www.w3.org/2000/svg" width="22.981" height="22.933" viewBox="0 0 22.981 22.933">
  <g id="svgexport-6_2_" data-name="svgexport-6 (2)" transform="translate(-1.858 -1.9)">
    <g id="outline" transform="translate(2 2)">
      <path id="Path_1090" data-name="Path 1090" d="M47.516,13.031a1.516,1.516,0,1,1,1.516-1.516A1.516,1.516,0,0,1,47.516,13.031Zm0-2.273a.758.758,0,1,0,.758.758A.758.758,0,0,0,47.516,10.758Z" transform="translate(-29.329 -6.969)" fill="#353535" stroke="#7c7c7c" stroke-width="0.2"/>
      <path id="Path_1091" data-name="Path 1091" d="M54.329,7.929a.378.378,0,0,0,.268-.111l.536-.536a.379.379,0,1,0-.536-.536l-.536.536a.379.379,0,0,0,.268.647Z" transform="translate(-34.267 -4.879)" fill="#353535" stroke="#7c7c7c" stroke-width="0.2"/>
      <path id="Path_1092" data-name="Path 1092" d="M43.283,7.819a.379.379,0,1,0,.536-.536l-.536-.536a.379.379,0,1,0-.536.536Z" transform="translate(-27.239 -4.88)" fill="#353535" stroke="#7c7c7c" stroke-width="0.2"/>
      <path id="Path_1093" data-name="Path 1093" d="M43.283,18.061l-.536.536a.379.379,0,1,0,.536.536l.536-.536a.379.379,0,1,0-.536-.536Z" transform="translate(-27.239 -11.907)" fill="#353535" stroke="#7c7c7c" stroke-width="0.2"/>
      <path id="Path_1094" data-name="Path 1094" d="M54.061,18.061a.379.379,0,0,0,0,.536l.536.536a.379.379,0,1,0,.536-.536l-.536-.536A.379.379,0,0,0,54.061,18.061Z" transform="translate(-34.267 -11.907)" fill="#353535" stroke="#7c7c7c" stroke-width="0.2"/>
      <path id="Path_1095" data-name="Path 1095" d="M49.379,4.273a.379.379,0,0,0,.379-.379V2.379a.379.379,0,1,0-.758,0V3.894A.379.379,0,0,0,49.379,4.273Z" transform="translate(-31.192 -2)" fill="#353535" stroke="#7c7c7c" stroke-width="0.2"/>
      <path id="Path_1096" data-name="Path 1096" d="M38.379,13.758h1.516a.379.379,0,0,0,0-.758H38.379a.379.379,0,0,0,0,.758Z" transform="translate(-24.36 -8.832)" fill="#353535" stroke="#7c7c7c" stroke-width="0.2"/>
      <path id="Path_1097" data-name="Path 1097" d="M49,20.379v1.516a.379.379,0,0,0,.758,0V20.379a.379.379,0,1,0-.758,0Z" transform="translate(-31.192 -13.18)" fill="#353535" stroke="#7c7c7c" stroke-width="0.2"/>
      <path id="Path_1098" data-name="Path 1098" d="M56,13.379a.379.379,0,0,0,.379.379h1.516a.379.379,0,0,0,0-.758H56.379A.379.379,0,0,0,56,13.379Z" transform="translate(-35.54 -8.832)" fill="#353535" stroke="#7c7c7c" stroke-width="0.2"/>
      <path id="Path_1099" data-name="Path 1099" d="M13.367,28.982c-.3,0-.606.005-.906.014l-2.97-7.17,3.375-1.4,2.776-1.151a.379.379,0,0,0,.167-.565,7.611,7.611,0,0,0-8.777-2.82l-.3-.717a.379.379,0,1,0-.7.29l.3.717a7.609,7.609,0,0,0-4.207,8.2.379.379,0,0,0,.518.282l2.776-1.151,3.373-1.4,2.864,6.914c-4.6.247-8.422,1.469-9.587,3.145a.379.379,0,0,0,.311.6H24.355a.379.379,0,0,0,.311-.6C23.359,30.3,18.713,28.982,13.367,28.982ZM14.9,18.762l-2.031.842a8.834,8.834,0,0,0-3.506-3.39A6.858,6.858,0,0,1,14.9,18.762Zm-7.165-2.19c1.39,0,3.106,1.265,4.427,3.325L9.2,21.126,7.33,16.612a2.115,2.115,0,0,1,.408-.04ZM4.831,22.937,2.8,23.779a6.858,6.858,0,0,1,2.11-5.717A8.836,8.836,0,0,0,4.831,22.937Zm.707-.293c-.576-2.629-.132-4.913,1.093-5.739L8.5,21.416Zm-2.27,9.369c1.7-1.347,5.691-2.273,10.1-2.273s8.4.926,10.1,2.273Z" transform="translate(-2 -10.037)" fill="#353535" stroke="#7c7c7c" stroke-width="0.2"/>
    </g>
  </g>
</svg>
