<svg xmlns="http://www.w3.org/2000/svg" width="78.991" height="236.734" viewBox="0 0 78.991 236.734">
  <g id="Group_922" data-name="Group 922" transform="translate(-1139.712 11)">
    <path id="Path_2" data-name="Path 2" d="M78.758,99.969c-4.412-.391-8.656-1.845-12.845-3.288a10.473,10.473,0,0,1-3.679-1.833,1.4,1.4,0,0,1-.421-.571,1.434,1.434,0,0,1,.283-1.112,12.513,12.513,0,0,1,3.36-3.679l-.427-.18c2.368-6.191,4.761-12.418,8.277-18.038A18.556,18.556,0,0,1,76.8,66.945,34.937,34.937,0,0,1,80.014,64.7a31.994,31.994,0,0,0,6.66-5.975l-.036-.367c.036-1.34.072-3.354.884-4.49.421-.6,2.561-1.515,1.911-2.47l.12.295a64.8,64.8,0,0,1,2.639-16.572,7.3,7.3,0,0,1,1.443-2.981c1.479-1.587,3.937-1.629,6.107-1.563l.781-.8a17.693,17.693,0,0,1,5.993.679,4,4,0,0,1,1.863.986,4.3,4.3,0,0,1,.866,1.96,93.789,93.789,0,0,1,2.639,16.987l-.21-.246c.3,1.208,1.491,1.929,2.434,2.735s1.767,2.182,1.088,3.228l-.1.1c4.61,1.515,8.349,4.977,11.282,8.842a43.509,43.509,0,0,1,4.171,6.672c.781,1.533,1.467,3.114,2.152,4.688q2.425,5.581,4.845,11.162l-.252-.433c.24.4.817.373,1.274.487a2.174,2.174,0,0,1,1.419,2.35,4.6,4.6,0,0,1-1.395,2.579l.733-.848a51.854,51.854,0,0,1-16.446,6.654,96.952,96.952,0,0,1-9.762,1.437A146.576,146.576,0,0,1,92.462,101c-2.723-.084-5.44-.307-8.157-.529L77.3,99.9Z" transform="translate(1078.515 123.204)" fill="#bfd6ff"/>
    <g id="Group_126" data-name="Group 126" transform="translate(1152.651 183.414)">
      <path id="Path_135" data-name="Path 135" d="M83.55,34.674c-1.13-.391-1.953.649-2.795,1.3-1.172.908-2.29,1.881-3.426,2.831q-3.417,2.858-6.732,5.842c-2.368,2.128-9.2,7.562-5.86,11.222a.943.943,0,0,0,1.322,0A7.4,7.4,0,0,0,67.4,53.314a10.187,10.187,0,0,1,1.929-2.969c1.791-2.014,3.9-3.745,5.836-5.614,2.134-2.056,4.25-4.135,6.323-6.257.391-.4,3.637-3.264,2.056-3.8Z" transform="translate(-63.835 -34.589)" fill="#99beff"/>
    </g>
    <g id="Group_127" data-name="Group 127" transform="translate(1189.458 187.107)">
      <path id="Path_136" data-name="Path 136" d="M70.183,37.258c1.346,2.206,3,4.214,4.3,6.45,1.256,2.158,2.032,4.833,3.576,6.774.89,1.118,3.144.228,2.957-1.226-.337-2.579-2.11-5.157-3.5-7.321A27.868,27.868,0,0,0,72.4,35.551c-1.166-.974-3.1.258-2.218,1.707Z" transform="translate(-69.959 -35.203)" fill="#99beff"/>
    </g>
    <g id="Group_128" data-name="Group 128" transform="translate(1190.76 187.598)">
      <path id="Path_137" data-name="Path 137" d="M70.613,37.876c1.773,2.062,3.673,4.015,5.476,6.053q1.307,1.47,2.561,2.981a20.7,20.7,0,0,0,2.747,3.2q.884-1.524,1.767-3.035a10.42,10.42,0,0,0-1.659-.343l.805.331a9.2,9.2,0,0,1-1.509-1.7c-.349-.475-1.316-.4-1.25.343a9.132,9.132,0,0,0,1.563,4.027,1.814,1.814,0,0,0,3.132-1.827,15.291,15.291,0,0,0-2.5-3.246c-.926-1.064-1.863-2.116-2.825-3.144a56.138,56.138,0,0,0-6.113-5.842,1.552,1.552,0,0,0-2.194,2.194Z" transform="translate(-70.175 -35.285)" fill="#99beff"/>
    </g>
    <g id="Group_129" data-name="Group 129" transform="translate(1185.878 182.277)">
      <path id="Path_138" data-name="Path 138" d="M69.555,36.614c.619,1.118,1.875,1.394,2.963,1.947,1.142.583,2.278,1.2,3.372,1.857A35.839,35.839,0,0,1,81.962,45.1,33.844,33.844,0,0,1,86.9,50.919a37.635,37.635,0,0,1,1.96,3.324,30.669,30.669,0,0,0,1.707,3.45c.409-1,.817-2.014,1.226-3.011-.793.325-1.539.811-2.332,1.106a15.555,15.555,0,0,1-3.306.613,23.137,23.137,0,0,1-6,.289.64.64,0,1,0-.174,1.262c2.729.234,5.446.541,8.169.817s5.4.86,8.115,1.112c-.108-.775-.21-1.557-.319-2.332a8.475,8.475,0,0,0-1.911.373.6.6,0,0,0-.144,1.088,9.878,9.878,0,0,0,2.056.83c1.443.5,2.134-1.935.631-2.29a55.31,55.31,0,0,0-16.6-.884l.174,1.262a22.569,22.569,0,0,1,6-.361,19.773,19.773,0,0,1,2.6.15,22.934,22.934,0,0,1,3.035.914c1.647.487,2.735-1.052,2.525-2.519-.385-2.621-2.332-5.434-3.811-7.58A38.785,38.785,0,0,0,84.967,42.1a36.574,36.574,0,0,0-6.654-4.857,28.683,28.683,0,0,0-3.919-1.893c-1.2-.469-2.735-1.292-4.009-.787a1.422,1.422,0,0,0-.83,2.056Z" transform="translate(-69.363 -34.4)" fill="#99beff"/>
    </g>
    <g id="Group_130" data-name="Group 130" transform="translate(1185.539 176.323)">
      <path id="Path_139" data-name="Path 139" d="M70.079,33.77c-1.04,1.04-.775,2.488-.637,3.829.126,1.2.252,2.639,1.16,3.528a2.4,2.4,0,0,0,3.282.283c.553-.553.9-1.863.2-2.434a.737.737,0,0,0-1.016,0c-.15.12-.15.126.006.018l1.052.282c-.1-.09-.854-.757-.469-.313.319.361-.054-.228-.1-.367-.15-.559-.168-1.16-.288-1.731-.258-1.244-.421-2.639-1.665-3.294a1.291,1.291,0,0,0-1.527.2Z" transform="translate(-69.306 -33.409)" fill="#99beff"/>
    </g>
    <g id="Group_131" data-name="Group 131" transform="translate(1182.688 157.581)">
      <path id="Path_140" data-name="Path 140" d="M68.927,31.817a59.74,59.74,0,0,0,.234,9.671c.168,1.509.385,3.017.691,4.508.283,1.419.463,3.035,1.923,3.691a1.393,1.393,0,0,0,1.839-.487c.823-1.148.4-2.35.09-3.619-.367-1.515-.679-3.047-.944-4.58a50.532,50.532,0,0,1-.673-9.185c.03-2.05-3.047-2.02-3.162,0Z" transform="translate(-68.832 -30.291)" fill="#99beff"/>
    </g>
    <g id="Group_176" data-name="Group 176" transform="translate(1144.47 209.542)">
      <path id="Path_185" data-name="Path 185" d="M65.058,50.424a65.364,65.364,0,0,0,8.331-.2q4.174-.451,8.349-.854c5.47-.529,10.934-1.088,16.409-1.515s10.952-.679,16.44-.848c2.807-.084,5.578-.289,8.385-.475a76.782,76.782,0,0,1,8.385-.469c-.938-.938-1.869-1.869-2.8-2.807-.018.571-3.3,1.052-3.751,1.142-2.657.5-5.32.974-8,1.316-5.332.673-10.7,1.124-16.067,1.382s-10.759.289-16.133.072c-2.741-.114-5.476-.222-8.211-.4a16.321,16.321,0,0,0-3.829.084,10.614,10.614,0,0,0-3.739.92,1.274,1.274,0,0,0-.252,1.99,11.075,11.075,0,0,0,3.991,1.99,17.766,17.766,0,0,0,4.46.751c2.939.307,5.885.523,8.842.625a181.294,181.294,0,0,0,18.345-.319c6.155-.427,12.268-1.31,18.339-2.338,4.394-.739,11.427-1.352,11.607-7.213a2.864,2.864,0,0,0-2.8-2.8c-2.813-.21-5.572-.842-8.385-1.112a73.811,73.811,0,0,0-8.385-.4c-5.6.1-11.192.517-16.764,1.034Q89.257,40.771,80.746,42q-4.156.6-8.3,1.25a62.012,62.012,0,0,0-8.091,1.972,2.659,2.659,0,0,0,.7,5.2Z" transform="translate(-62.474 -38.936)" fill="#e3edfd"/>
    </g>
    <g id="Group_177" data-name="Group 177" transform="translate(1141.421 209.249)">
      <path id="Path_186" data-name="Path 186" d="M68.207,48.024a6.669,6.669,0,0,1-1.5-.186c-.258-.162-.541-.878-.836-1.13l.355,2.771c.343-.613-.174-.078.078-.21a3.987,3.987,0,0,1,1.064-.216c1.166-.192,2.338-.361,3.51-.547,2.236-.349,4.466-.721,6.708-1.04,4.52-.655,9.064-1.244,13.6-1.821,4.346-.553,8.734-1.052,13.116-1.2,4.472-.15,9.106.793,13.518.012,1.677-.295,1.725-2.651.451-3.438-4.22-2.6-10.134-2.182-14.907-1.96A131.906,131.906,0,0,0,88.012,40.9c-5.073.836-10.122,1.767-15.2,2.525-2.44.367-5.007.541-7.405,1.118-2.14.517-3.829,2.05-3.36,4.388a2.3,2.3,0,0,0,3.366,1.37,2.964,2.964,0,0,0,1.37-1.761L66.175,49l1.923-.168c.427-.036.607-.745.108-.811Z" transform="translate(-61.967 -38.887)" fill="#e3edfd"/>
    </g>
    <g id="Group_178" data-name="Group 178" transform="translate(1141.728 208.949)">
      <path id="Path_187" data-name="Path 187" d="M62.656,48.454c1.413.854,3,.385,4.5-.03,1.683-.457,3.372-.89,5.073-1.286q5.1-1.19,10.285-2c3.342-.523,6.69-.9,10.05-1.238a44.965,44.965,0,0,0,10.471-1.815,1.237,1.237,0,0,0,0-2.362,27.792,27.792,0,0,0-10.471-.715c-3.582.289-7.171.8-10.711,1.431q-5.148.911-10.218,2.212-2.687.685-5.344,1.479c-1.527.457-3.39.926-4.111,2.494a1.376,1.376,0,0,0,.481,1.827Z" transform="translate(-62.018 -38.837)" fill="#e3edfd"/>
    </g>
    <g id="Group_305" data-name="Group 305" transform="translate(1144.273 203.532)">
      <path id="Path_314" data-name="Path 314" d="M62.9,46.508c10.339-3.949,21.332-5.6,32.3-6.582,5.416-.487,10.868-1,16.3-1.136a42.281,42.281,0,0,1,16.157,2.975c.144.054.24-.18.1-.252a30.6,30.6,0,0,0-15.334-3.576c-5.632.048-11.318.631-16.926,1.124-11.156.986-22.312,2.627-32.795,6.714-.451.174-.258.908.2.733Z" transform="translate(-62.441 -37.936)" fill="#99beff"/>
    </g>
    <g id="Group_306" data-name="Group 306" transform="translate(1151.018 194.072)">
      <path id="Path_315" data-name="Path 315" d="M64.487,50.368a34.476,34.476,0,0,0,5.506-1.1c1.953-.523,3.781-1.419,5.722-1.941a1.042,1.042,0,0,0,.246-1.881c-3.534-1.611-8.024-1.2-11.589.09L65.461,47.4A122.715,122.715,0,0,0,75.5,37.2c.319-.379-.108-1.088-.577-.745A124.209,124.209,0,0,0,63.88,45.824a1.123,1.123,0,0,0,1.088,1.863,16.037,16.037,0,0,1,5.067-1.016,26.787,26.787,0,0,1,5.133.655l-.246-1.881c-3.072,2.008-7.111,2.807-10.573,3.877-.547.168-.481,1.106.138,1.046Z" transform="translate(-63.563 -36.362)" fill="#99beff"/>
    </g>
    <g id="Group_307" data-name="Group 307" transform="translate(1160.237 201.009)">
      <path id="Path_316" data-name="Path 316" d="M66.244,37.516l-1.106.024c-.054,0-.054.084,0,.09l1.106.018a.066.066,0,0,0,0-.132Z" transform="translate(-65.097 -37.516)" fill="#db7878"/>
    </g>
    <g id="Group_309" data-name="Group 309" transform="translate(1188.559 184.942)">
      <path id="Path_318" data-name="Path 318" d="M69.833,35.218c-.373,2.146,3.745,1.286,4.827,1.352a13.972,13.972,0,0,1,9.395,4.466l.637-1.545c-3.27-.054-6.546-.042-9.816-.06-1.022-.006-1.316,1.659-.252,1.827A36.6,36.6,0,0,1,86.272,45.1l.475-1.749c-3.138-.156-6.245-.3-9.359-.721a.972.972,0,1,0-.264,1.917,29.234,29.234,0,0,1,11.757,4.418l.487-1.785-9.894.054V49.2a16.451,16.451,0,0,1,11.8,3.114l.523-1.929c-2.308.048-4.61.09-6.918.132a.948.948,0,0,0-.252,1.851,30.154,30.154,0,0,0,7.285,1.671.407.407,0,0,0,.2-.751,30.08,30.08,0,0,0-6.979-2.735L84.878,52.4c2.308.018,4.61.036,6.918.06a1.045,1.045,0,0,0,.523-1.929,17.9,17.9,0,0,0-12.845-3.294c-1.214.156-1.3,1.978,0,1.966l9.894-.1a.966.966,0,0,0,.487-1.785,37.923,37.923,0,0,0-12.466-4.682l-.523,1.881a65.512,65.512,0,0,0,9.882.721c.878-.018,1.346-1.322.475-1.755a42.716,42.716,0,0,0-12.1-4.015L74.876,41.3c3.27.006,6.546.036,9.816.006a.916.916,0,0,0,.643-1.545,15.365,15.365,0,0,0-7.021-4.021,14.252,14.252,0,0,0-3.9-.451c-.835.018-3.961.962-4.183-.066a.208.208,0,0,0-.4,0Z" transform="translate(-69.809 -35.072)" fill="#99beff"/>
    </g>
    <g id="Group_311" data-name="Group 311" transform="translate(1170.044 179.013)">
      <path id="Path_320" data-name="Path 320" d="M67.006,35.313l-.138.192a.924.924,0,0,0,.553,1.352,2.112,2.112,0,0,0,2.218-.763,6.468,6.468,0,0,0,.529-.92c.192-.283.391-.553.2-.9-.373-.721-1.443-.355-1.972-.03-.337.21-.487.619-.817.817.144-.09-.132.006-.162.018a.9.9,0,0,0-.415.234Z" transform="translate(-66.729 -33.857)" fill="#99beff"/>
    </g>
    <g id="Group_312" data-name="Group 312" transform="translate(1183.86 156.65)">
      <path id="Path_321" data-name="Path 321" d="M70.24,30.16c-1.635,1.208-1.364,2.759-.655,4.508a25.3,25.3,0,0,1,1.473,3.661,19.346,19.346,0,0,1,.355,3.949c.078,2.416.282,4.749,1.671,6.81.6.89,1.37,1.677,1.929,2.591a7.588,7.588,0,0,1,.908,3.192c.12.836,1.19.715,1.587.2,1.178-1.527.012-3.522-.956-4.815-1.557-2.074-2.879-3.715-3.138-6.4-.222-2.344-.084-4.755-.944-7-.745-1.941-2.621-4.316-2.014-6.54.03-.108-.108-.24-.216-.162Z" transform="translate(-69.027 -30.136)" fill="#99beff"/>
    </g>
    <g id="Group_313" data-name="Group 313" transform="translate(1168.042 176.796)">
      <path id="Path_322" data-name="Path 322" d="M72.343,33.495c-1.731-.1-3.09.968-4.184,2.266-.962,1.142-2.1,2.891-1.671,4.448a.515.515,0,0,0,.854.222c.932-.968,1.322-2.428,2.152-3.5.89-1.154,2.092-1.99,2.981-3.114a.192.192,0,0,0-.132-.325Z" transform="translate(-66.396 -33.488)" fill="#99beff"/>
    </g>
    <g id="Group_662" data-name="Group 662" transform="translate(1177.619 -11)">
      <path id="Path_669" data-name="Path 669" d="M69.642,2.586c-1.106,21.188-1.5,42.46-1.641,63.678-.072,10.615.2,21.224.234,31.839s.054,21.23.252,31.845c.108,5.849.2,11.7.319,17.546.126,6.053.03,12.148.415,18.189a.409.409,0,0,0,.817,0c.138-5.4-.138-10.831-.186-16.241-.054-5.2-.114-10.4-.138-15.6-.042-10.609-.132-21.224-.168-31.839s.264-21.224.295-31.845.012-21.224.036-31.839c.024-11.907.126-23.827,0-35.734a.117.117,0,0,0-.234,0Z" transform="translate(-67.989 -2.473)" fill="#211239"/>
    </g>
    <g id="Group_665" data-name="Group 665" transform="translate(1164.46 176.647)">
      <path id="Path_672" data-name="Path 672" d="M69.383,33.5c-1.22,1.208-5.163,5.169-2.891,6.9a.273.273,0,0,0,.367-.1c.541-.811.319-2.05.523-2.987a8.066,8.066,0,0,1,2.164-3.655.115.115,0,0,0-.162-.162Z" transform="translate(-65.8 -33.463)" fill="#211239"/>
    </g>
    <g id="Group_666" data-name="Group 666" transform="translate(1143.575 182.499)">
      <path id="Path_673" data-name="Path 673" d="M83.584,34.548a27.387,27.387,0,0,1-6.42,6.293,23.575,23.575,0,0,0-5.987,5.566,47.459,47.459,0,0,0-4.634,8.926c-1.449,3.438-2.879,6.906-4.214,10.387a.072.072,0,0,0,.132.054c1.647-3.354,3.3-6.648,5.157-9.9,1.731-3.035,3.114-6.317,5.163-9.166a32.466,32.466,0,0,1,6.329-6.047c1.984-1.6,4.165-3.408,4.923-5.927.09-.283-.294-.4-.451-.186Z" transform="translate(-62.325 -34.437)" fill="#211239"/>
    </g>
    <g id="Group_667" data-name="Group 667" transform="translate(1139.712 213.676)">
      <path id="Path_674" data-name="Path 674" d="M65.8,39.663c-1.382,1.1-3.606,1.653-4.051,3.618-.331,1.461.685,2.621,1.857,3.324a25.179,25.179,0,0,0,6.239,2.3,28.525,28.525,0,0,0,7.117,1.076A.16.16,0,0,0,77,49.671c-3.336-.908-6.7-1.749-9.948-2.933-1.647-.607-5-1.509-3.913-3.877.553-1.208,2.176-1.875,2.945-2.975.126-.186-.138-.337-.289-.222Z" transform="translate(-61.682 -39.623)" fill="#211239"/>
    </g>
    <g id="Group_668" data-name="Group 668" transform="translate(1150.414 211.218)">
      <path id="Path_675" data-name="Path 675" d="M63.578,51.738c11.216,1.328,22.432,2.338,33.745,1.881A102.337,102.337,0,0,0,113.155,51.7c5.1-1.016,10.435-2.308,15.111-4.652,1.725-.866,3.39-2.158,3.48-4.214.072-1.587-.5-3.138-2.146-3.606a.225.225,0,0,0-.12.433c1.845.607,2.11,2.753,1.208,4.232a7.592,7.592,0,0,1-3.877,2.807,73.748,73.748,0,0,1-8.247,2.687,93.771,93.771,0,0,1-18.3,2.8c-12.214.805-24.488-.06-36.684-.673-.156-.006-.15.216,0,.234Z" transform="translate(-63.463 -39.214)" fill="#211239"/>
    </g>
    <g id="Group_669" data-name="Group 669" transform="translate(1144.227 206.799)">
      <path id="Path_676" data-name="Path 676" d="M62.586,45.673c5.975-1.106,11.853-2.615,17.864-3.546a174.962,174.962,0,0,1,17.888-1.953c11.787-.625,24.181-.192,35.5,3.408a.1.1,0,0,0,.054-.2,120.159,120.159,0,0,0-18.014-4.2,85.541,85.541,0,0,0-17.54-.475,131.179,131.179,0,0,0-17.594,2.218A133.59,133.59,0,0,0,62.52,45.432a.125.125,0,0,0,.066.24Z" transform="translate(-62.434 -38.479)" fill="#211239"/>
    </g>
    <g id="Group_670" data-name="Group 670" transform="translate(1178.922 154.043)">
      <path id="Path_677" data-name="Path 677" d="M68.327,30.169c2.224.1,5.5-.174,7.027,1.761,1.184,1.509,1.232,4.063,1.539,5.879.715,4.268,1.154,8.836,2.476,12.965a.292.292,0,0,0,.571-.078,65.252,65.252,0,0,0-1.2-8.2c-.433-2.639-.86-5.283-1.395-7.9-.343-1.665-.962-3.348-2.585-4.135a11.544,11.544,0,0,0-6.474-.535c-.138.03-.1.24.036.246Z" transform="translate(-68.206 -29.702)" fill="#211239"/>
    </g>
    <g id="Group_671" data-name="Group 671" transform="translate(1190.166 174.896)">
      <path id="Path_678" data-name="Path 678" d="M70.152,33.468A10.621,10.621,0,0,1,73,36.371c.727,1.268.553,2.464.493,3.841a.18.18,0,0,0,.3.126c1.052-1,.823-2.645.258-3.841a7.154,7.154,0,0,0-3.733-3.306.16.16,0,0,0-.162.277Z" transform="translate(-70.076 -33.172)" fill="#211239"/>
    </g>
    <g id="Group_672" data-name="Group 672" transform="translate(1193.784 181.066)">
      <path id="Path_679" data-name="Path 679" d="M70.8,34.78c2.236,1.815,4.652,3.366,6.774,5.338a47.418,47.418,0,0,1,6.209,7.051,49.376,49.376,0,0,1,4.58,7.79c1.334,2.8,2.4,5.716,3.787,8.475.042.078.144.018.132-.054C91.258,57.3,88.012,51.112,84.5,46.1A40.134,40.134,0,0,0,78.6,39.469a28.633,28.633,0,0,0-7.381-5.241c-.325-.144-.763.277-.421.553Z" transform="translate(-70.678 -34.198)" fill="#211239"/>
    </g>
  </g>
</svg>
