<svg xmlns="http://www.w3.org/2000/svg" width="20.2" height="23.567" viewBox="0 0 20.2 23.567">
  <g id="logout" transform="translate(-4.5 -2.25)" opacity="0.7">
    <path id="Path_1115" data-name="Path 1115" d="M6.183,25.817h10.1a1.685,1.685,0,0,0,1.683-1.683V21.608H16.283v2.525H6.183V3.933h10.1V6.458h1.683V3.933A1.685,1.685,0,0,0,16.283,2.25H6.183A1.685,1.685,0,0,0,4.5,3.933v20.2a1.685,1.685,0,0,0,1.683,1.683Z" fill="#353535"/>
    <path id="Path_1116" data-name="Path 1116" d="M20.16,20.16l3.019-3.018H11.25V15.458H23.178L20.16,12.44l1.19-1.19L26.4,16.3l-5.05,5.05Z" transform="translate(-1.7 -2.267)" fill="#353535"/>
  </g>
</svg>
