<svg xmlns="http://www.w3.org/2000/svg" width="166.243" height="373.091" viewBox="0 0 166.243 373.091">
  <g id="Group_795" data-name="Group 795" transform="translate(-938.816 -291.597)">
    <g id="Group_792" data-name="Group 792" transform="translate(938.816 291.597)">
      <g id="Group_791" data-name="Group 791" transform="translate(0 0)">
        <path id="Path_1018" data-name="Path 1018" d="M482.44,234.991c0,3.247,30.291,5.878,67.654,5.878s67.654-2.632,67.654-5.878-30.289-5.878-67.654-5.878S482.44,231.745,482.44,234.991Z" transform="translate(-482.44 132.221)" fill="#263d49" opacity="0.1"/>
        <g id="Group_785" data-name="Group 785" transform="translate(68.204)">
          <path id="Path_1019" data-name="Path 1019" d="M501.327,58.367l-.156,27.126-1.555,13.783,10.213,2.818,11.865,3.523-1.441-20.044-.7-20.492Z" transform="translate(-485.113 -0.449)" fill="#c9a095"/>
          <path id="Path_1020" data-name="Path 1020" d="M514.369,33.165c-13.621,3.362-13.088,12.752-13.088,12.752a84.386,84.386,0,0,0-.334,14.143,4.5,4.5,0,0,0-5.63-1.429c-4.62,2.076-.92,16.679,6.134,15.286a37.747,37.747,0,0,0,2.69,10.1c2.062,4.137,10.914,10.339,18.68,11.193s17.568-3.606,18.134-12.727c.786-12.636-1.38-39.833-1.38-39.833S536.925,27.6,514.369,33.165Z" transform="translate(-493.271 -20.991)" fill="#e5beb1"/>
          <path id="Path_1021" data-name="Path 1021" d="M524.274,37.487c-3.691.053-9.5-1.12-13.191-1.139,0-.37,0,2.71.009,2.737.642,1.589.814,16.025.814,16.025,3.714.11,3.666,3.092,3.666,3.092l.611,6.632,3.678-.45-.034-14.072a7.321,7.321,0,0,0,3.256-3.636S523.75,40,524.274,37.487Z" transform="translate(-508.068 -17.582)" fill="#263d49"/>
          <path id="Path_1022" data-name="Path 1022" d="M516.656,41.18s-6.87,5.329-13.438-.222" transform="translate(-486.474 -13.976)" fill="none" stroke="#172d3a" stroke-miterlimit="10" stroke-width="1.454"/>
          <path id="Path_1023" data-name="Path 1023" d="M494.019,44.764s5.2-6.09,10.571.142" transform="translate(-458.062 -13.089)" fill="none" stroke="#172d3a" stroke-miterlimit="10" stroke-width="1.373"/>
          <path id="Path_1024" data-name="Path 1024" d="M518.923,64.626s-11.012-2.179-12.691,1.283-2.221,7.234-5.29,5.9S497.9,42.931,497.9,42.931l-3.984,9.2s-6.644,36.484,15.524,37.18c23.249.73,26.572-5.956,24.4-18.188,0,0-2.55,1.263-3.854-2.033S531.138,62.853,518.923,64.626Z" transform="translate(-486.03 -12.443)" fill="#263d49"/>
          <path id="Path_1025" data-name="Path 1025" d="M512.454,60.346l-12.949-.514S503.594,54.4,512.454,60.346Z" transform="translate(-475.674 -1.073)" fill="#fff"/>
          <path id="Path_1026" data-name="Path 1026" d="M491.945,47.276s-2.195-11.81,7.968-11.023A27.367,27.367,0,0,1,521.75,25.774l-6,3.423s8.2-5.477,22.389-.46a8.047,8.047,0,0,1-6.637,5.775s6.508-1.132,7.984-2.372c0,0-.26,9.29-5.162,11.492s-23.522-6.047-29.967,3.2S493.1,45.9,493.1,45.9" transform="translate(-488.921 -25.774)" fill="#263d49"/>
          <path id="Path_1027" data-name="Path 1027" d="M503.279,43.814l15.135,1.271s.6,12.645-9.368,11.7S503.279,43.814,503.279,43.814Z" transform="translate(-486.783 -11.757)" fill="#e3edfd" stroke="#e0aa69" stroke-miterlimit="10" stroke-width="0.631"/>
          <path id="Path_1028" data-name="Path 1028" d="M520.055,44.972l-17.508-1.654-.452,1.99,17.614,1.275Z" transform="translate(-487.878 -12.143)" fill="#e0aa69"/>
          <path id="Path_1029" data-name="Path 1029" d="M506.387,45l-14.5-.407s-1.661,13.83,8.334,13.191S506.387,45,506.387,45Z" transform="translate(-456.611 -11.148)" fill="#e3edfd" stroke="#e0aa69" stroke-miterlimit="10" stroke-width="0.631"/>
          <path id="Path_1030" data-name="Path 1030" d="M490.929,44.267l16.866.169.39,2-16.978-.479Z" transform="translate(-456.165 -11.405)" fill="#e0aa69"/>
          <path id="Path_1031" data-name="Path 1031" d="M497.877,61.227l1.766-15.654,5.687,13.756Z" transform="translate(-465.657 -10.391)" fill="#c9a095"/>
          <path id="Path_1032" data-name="Path 1032" d="M523.887,45.306,511.948,49.94l.078-1.782,12.282-4.841Z" transform="translate(-509.639 -12.143)" fill="#e0aa69"/>
          <path id="Path_1033" data-name="Path 1033" d="M500.4,46.321a3.15,3.15,0,0,1,3.863.06" transform="translate(-469.063 -10.299)" fill="none" stroke="#e0aa69" stroke-miterlimit="10" stroke-width="0.759"/>
        </g>
        <g id="Group_787" data-name="Group 787" transform="translate(83.896 336.664)">
          <path id="Path_1034" data-name="Path 1034" d="M505.853,215.23l-2.88,21.628,8.338,2.891,4.231-23.144Z" transform="translate(-500.619 -215.23)" fill="#fba569"/>
          <path id="Path_1035" data-name="Path 1035" d="M503.436,221.93a28.091,28.091,0,0,0,12.444,8.61c7.561,2.328,14.372,5.23,13.727,9.56,0,0-11.43,5.025-29.674-1.2l-.037,1.837-12.048-.748.311-15.2,10,.874-.711-1.518Z" transform="translate(-487.848 -210.024)" fill="#8e7775"/>
          <g id="Group_786" data-name="Group 786" transform="translate(0 26.936)">
            <path id="Path_1036" data-name="Path 1036" d="M507.929,232.705c16.377,4.354,20.647-.02,21.615-.309a2.814,2.814,0,0,1,.071,1.132s-11.43,5.025-29.674-1.2l-.037,1.837-12.048-.748.062-3.032C492.219,230.722,495.854,229.5,507.929,232.705Z" transform="translate(-487.856 -230.388)" fill="#594847"/>
          </g>
        </g>
        <g id="Group_789" data-name="Group 789" transform="translate(9.03 337.236)">
          <path id="Path_1037" data-name="Path 1037" d="M540.716,215.552l.456,21.814-8.608,1.945-1.63-23.471Z" transform="translate(-501.068 -215.552)" fill="#fba569"/>
          <path id="Path_1038" data-name="Path 1038" d="M557.4,221.562a28.082,28.082,0,0,1-13.324,7.174c-7.773,1.471-14.865,3.6-14.706,7.973,0,0,10.8,6.264,29.625,2.109l-.167,1.83,12.057.6,1.381-15.14-10.04-.245.876-1.429Z" transform="translate(-529.362 -210.882)" fill="#8e7775"/>
          <g id="Group_788" data-name="Group 788" transform="translate(0.001 24.71)">
            <path id="Path_1039" data-name="Path 1039" d="M551.632,232.169c-16.761,2.5-20.517-2.315-21.448-2.712a2.862,2.862,0,0,0-.2,1.118s10.8,6.264,29.625,2.109l-.167,1.83,12.057.6.273-3.021C567.465,231.947,563.988,230.322,551.632,232.169Z" transform="translate(-529.985 -229.457)" fill="#594847"/>
          </g>
        </g>
        <path id="Path_1040" data-name="Path 1040" d="M572.723,118.516s12.791,90.638-17.08,180.071c0,0-9.2,6.234-17.2-.48,0,0,10.522-85.978,7.227-136.84l-6.417.981s-16.047,44.068-17.767,56.089-12.341,77.259-14.9,82.648c0,0-13.166,3.513-16.894-3.517,0,0,3.337-50.28,4.546-71.562.9-15.808,19.725-93.579,19.725-93.579Z" transform="translate(-453.015 46.287)" fill="#99beff"/>
        <path id="Path_1041" data-name="Path 1041" d="M492.874,164.176s31.78,13.992,61.323,4.73c0,0,5.375-53.964,8.222-86.68a142.315,142.315,0,0,0-35.122-8.1l-2.426,7.032-1.511-7.3s-27.648,1.395-38.124,3.684C485.236,77.537,490.057,139.048,492.874,164.176Z" transform="translate(-432.079 11.584)" fill="#d3e6ff"/>
        <path id="Path_1042" data-name="Path 1042" d="M507.216,77.091l9.057,9.363,5.613-10.143-9.934-5.62Z" transform="translate(-430.605 9.126)" fill="#fff"/>
        <path id="Path_1043" data-name="Path 1043" d="M511.369,77.936l-7.8,8.023L496.8,75.789l10.689-4.166Z" transform="translate(-401.575 9.851)" fill="#fff"/>
        <path id="Path_1044" data-name="Path 1044" d="M482.769,78.565s12.627,30.875,18.209,47.743c0,0-6.424,6.793-15.7,7.305l-10.291-27.426Z" transform="translate(-352.429 15.245)" fill="#d3e6ff"/>
        <path id="Path_1045" data-name="Path 1045" d="M550,76.072s-21.013,41.074-26.159,58.078c0,0,6.6,6.626,15.881,6.9l18.767-37.566Z" transform="translate(-496.751 13.308)" fill="#d3e6ff"/>
        <path id="Path_1046" data-name="Path 1046" d="M495.573,157.705s6.349,10.435,24.258,17.241l5.617-14.225,9.909,14.413s15.446-6,21.523-16.915L489.863,87.608Z" transform="translate(-434.762 22.271)" fill="#d3e6ff"/>
        <path id="Path_1047" data-name="Path 1047" d="M508.313,81.743a1.459,1.459,0,1,1-1.537-1.377A1.459,1.459,0,0,1,508.313,81.743Z" transform="translate(-413.802 16.642)" fill="#fff"/>
        <path id="Path_1048" data-name="Path 1048" d="M508.485,89.27a1.458,1.458,0,1,1-1.537-1.377A1.457,1.457,0,0,1,508.485,89.27Z" transform="translate(-414.28 22.491)" fill="#fff"/>
        <path id="Path_1049" data-name="Path 1049" d="M508.319,98.656a1.458,1.458,0,1,1-1.537-1.375A1.459,1.459,0,0,1,508.319,98.656Z" transform="translate(-413.822 29.785)" fill="#fff"/>
        <path id="Path_1050" data-name="Path 1050" d="M508.415,107.59a1.458,1.458,0,1,1-1.537-1.377A1.459,1.459,0,0,1,508.415,107.59Z" transform="translate(-414.086 36.726)" fill="#fff"/>
        <path id="Path_1051" data-name="Path 1051" d="M509.529,125.739a1.458,1.458,0,1,1-1.537-1.375A1.459,1.459,0,0,1,509.529,125.739Z" transform="translate(-417.179 50.829)" fill="#f2f0f0"/>
        <rect id="Rectangle_23" data-name="Rectangle 23" width="2.586" height="18.501" transform="matrix(0.02, -1, 1, 0.02, 65.669, 121.116)" fill="#fff"/>
        <path id="Path_1057" data-name="Path 1057" d="M507.106,113.585l7.053,1.871a9.215,9.215,0,0,1,4.279-1.724c.068-.011.137-.023.2-.028a7.671,7.671,0,0,1,4.7,1.155s6.363.355,6.587,3.106l-6.008.338a18.863,18.863,0,0,1,1.192,3.119l7.512-.2c-4.212,7.638-19.071,1.768-19.071,1.768l-7.849-1.569Z" transform="translate(-438.664 42.455)" fill="#e5beb1"/>
        <path id="Path_1058" data-name="Path 1058" d="M538.544,108.1s13.731,10.774,25.04,14.07c0,0-.174,6.2-3.341,10.182,0,0-29.877-4.4-40.29-12.544,0,0-5.391-2.7.94-14.927C523.319,100.2,538.544,108.1,538.544,108.1Z" transform="translate(-491.134 34.543)" fill="#d3e6ff"/>
        <path id="Path_1059" data-name="Path 1059" d="M493.883,47.213s3.519,8.437,7.392.7" transform="translate(-386.301 -9.116)" fill="none" stroke="#172d3a" stroke-miterlimit="10" stroke-width="0.716"/>
        <path id="Path_1060" data-name="Path 1060" d="M504.528,47.084s3.518,8.437,7.392.7" transform="translate(-415.863 -9.216)" fill="none" stroke="#172d3a" stroke-miterlimit="10" stroke-width="0.716"/>
        <g id="Group_790" data-name="Group 790" transform="translate(76.016 108.473)">
          <path id="Path_1052" data-name="Path 1052" d="M505,116.3a1.377,1.377,0,1,1-1.45-1.3A1.375,1.375,0,0,1,505,116.3Z" transform="translate(-480.902 -64.922)" fill="#f2f0f0"/>
          <path id="Path_1053" data-name="Path 1053" d="M465.852,119.231c.03.917,1.232,1.622,2.683,1.576l83.509-2.7c1.452-.048,2.605-.83,2.577-1.747h0c-.03-.919-1.232-1.624-2.685-1.578l-83.507,2.7c-1.454.046-2.607.828-2.577,1.747Z" transform="translate(-465.852 -65.087)" fill="#495f68"/>
          <path id="Path_1054" data-name="Path 1054" d="M469.94,117.483l83.507-2.7-58.094,1.878a2.211,2.211,0,0,0-1.72,3.382l-23.586.762c-1.452.046-2.653-.659-2.683-1.576S468.487,117.529,469.94,117.483Z" transform="translate(-467.363 -65.086)" fill="#394e54"/>
          <path id="Path_1055" data-name="Path 1055" d="M466.15,136.524a2.363,2.363,0,0,0,2.433,2.291l60.594-1.477a2.364,2.364,0,0,0,2.319-2.408l-1.118-45.82a2.364,2.364,0,0,0-2.433-2.292L467.351,88.3a2.362,2.362,0,0,0-2.319,2.408Z" transform="translate(-441.27 -86.817)" fill="#5a6f75"/>
          <path id="Path_1056" data-name="Path 1056" d="M501.8,87.657l.744-.018a2.329,2.329,0,0,0-1.166,2.045l1.127,46.181a2.357,2.357,0,0,0,2.217,2.269l-1.691.041a2.363,2.363,0,0,1-2.433-2.291l-1.118-45.82A2.362,2.362,0,0,1,501.8,87.657Z" transform="translate(-475.722 -86.178)" fill="#495f68"/>
        </g>
      </g>
    </g>
    <path id="Path_1062" data-name="Path 1062" d="M225.72,131.451a47.408,47.408,0,0,0,24.458,17.6l6.011-11.091L266.3,149.775s15.7-7.852,20.748-16.9L259.42,119.42Z" transform="translate(773.267 340.671)" fill="#fff"/>
  </g>
</svg>
