<svg xmlns="http://www.w3.org/2000/svg" width="195.246" height="355.097" viewBox="0 0 195.246 355.097">
  <g id="Group_784" data-name="Group 784" transform="translate(0)">
    <g id="Group_777" data-name="Group 777" transform="translate(17.19 86.329)">
      <path id="Path_968" data-name="Path 968" d="M241.47,175.407A204.183,204.183,0,0,1,304.44,80.852l-3.29-3.94a209.384,209.384,0,0,0-64.579,96.955Z" transform="translate(-236.571 -76.912)" fill="#e0aa69"/>
    </g>
    <g id="Group_778" data-name="Group 778" transform="translate(17.19 86.329)" opacity="0.1">
      <path id="Path_969" data-name="Path 969" d="M241.47,175.407A204.183,204.183,0,0,1,304.44,80.852l-3.29-3.94a209.384,209.384,0,0,0-64.579,96.955Z" transform="translate(-236.571 -76.912)" fill="#211f1e"/>
    </g>
    <path id="Path_970" data-name="Path 970" d="M360.026,233.646c0,4.177-42.117,7.563-94.071,7.563s-94.073-3.386-94.073-7.563,42.118-7.563,94.073-7.563S360.026,229.469,360.026,233.646Z" transform="translate(-168.007 112.691)" fill="#263d49" opacity="0.1"/>
    <g id="Group_780" data-name="Group 780" transform="translate(150.799 318.177)">
      <path id="Path_971" data-name="Path 971" d="M186.678,217.393,194.6,236.6l8.253-1.587-7.532-21.1Z" transform="translate(-186.678 -213.912)" fill="#fba569"/>
      <path id="Path_972" data-name="Path 972" d="M181.211,218.956a26.745,26.745,0,0,0,14.363,1.176c7.343-1.682,14.344-2.532,15.874,1.347,0,0-7.033,9.587-25.045,13.143l.844,1.533-10.293,5.119-6.981-12.684,8.666-4.043-1.31-.914Z" transform="translate(-167.001 -210.586)" fill="#8e7775"/>
      <g id="Group_779" data-name="Group 779" transform="translate(8.561 9.994)">
        <path id="Path_973" data-name="Path 973" d="M187.581,230.365c15.579-4.207,17.02-9.848,17.68-10.547a2.69,2.69,0,0,1,.6.9s-7.033,9.587-25.045,13.143l.844,1.533-10.293,5.119-1.393-2.53C173.68,236.212,176.1,233.468,187.581,230.365Z" transform="translate(-169.974 -219.818)" fill="#594847"/>
      </g>
    </g>
    <path id="Path_974" data-name="Path 974" d="M235.489,119.97l-40.922-2.594s-16.918,8.081-.9,32.557,51.512,41.347,66.391,62.369c12.378,17.492,18.412,56.9,41.086,82.321l14.5-9.717s-19.612-90.331-69.209-139.928C246.433,144.978,235.68,128.742,235.489,119.97Z" transform="translate(-148.827 37.431)" fill="#99beff"/>
    <path id="Path_975" data-name="Path 975" d="M214.67,138.813c43.716,50.734,61.237,131.251,61.237,131.251l-14.5,9.717c-22.674-25.424-28.708-64.829-41.086-82.321-7.6-10.731-20.551-20.394-33.55-30.533A74.359,74.359,0,0,0,214.67,138.813Z" transform="translate(-109.092 52.272)" fill="#99beff"/>
    <g id="Group_782" data-name="Group 782" transform="translate(7.774 318.447)">
      <path id="Path_976" data-name="Path 976" d="M277.908,214.072,270.042,233.3l6.985,4.673,9.476-20.3Z" transform="translate(-265.862 -214.072)" fill="#fba569"/>
      <path id="Path_977" data-name="Path 977" d="M278.064,222.457a26.737,26.737,0,0,0,9.391,10.931c6.405,3.967,11.982,8.282,10.343,12.117,0,0-11.741,1.875-27.052-8.257l-.477,1.684-10.921-3.593,3.952-13.928,9.007,3.215-.289-1.57Z" transform="translate(-259.348 -208.991)" fill="#8e7775"/>
      <g id="Group_781" data-name="Group 781" transform="translate(0 23.571)">
        <path id="Path_978" data-name="Path 978" d="M278.063,234.957c14.04,7.959,19.028,4.959,19.99,4.925a2.707,2.707,0,0,1-.207,1.061s-11.741,1.875-27.052-8.257l-.477,1.684L259.4,230.777l.789-2.777C264.066,229.344,267.711,229.09,278.063,234.957Z" transform="translate(-259.397 -228)" fill="#594847"/>
      </g>
    </g>
    <path id="Path_979" data-name="Path 979" d="M288.379,108.589c-7.049,3.618-14.324,10.2-18.155,22.18-8.91,27.862,7.49,67.31.541,92.11-5.784,20.633-24.386,41.12-32.154,69.8l16.133,8.365s41.36-56.723,45.542-70.467,7.842-46.525,7.641-72.946C294.727,143.256,293.926,127.482,288.379,108.589Z" transform="translate(-226.329 31.347)" fill="#99beff"/>
    <path id="Path_980" data-name="Path 980" d="M200.28,79.514l-.291-4.229s-9.719-7.995-6.544-7.5a27.711,27.711,0,0,1,5.657,1.894s-.621-14.3.685-15.08,2.736,9.125,2.736,9.125-1.51-11.96.362-12.779,2.681,12.444,2.681,12.444,1.048-12.427,1.845-12.337c2.022.232,1.709,12.813,1.709,12.813s1.281-7.819,2.848-8.16-1.9,24.176-1.9,24.176Z" transform="translate(-55.224 -8.589)" fill="#e5beb1"/>
    <g id="Group_783" data-name="Group 783" transform="translate(40.57 0)">
      <path id="Path_981" data-name="Path 981" d="M240.467,58.847l.905,25.818-.944,13.175,9.827,2.285,11.427,2.891L259.532,84l-1.463-19.472Z" transform="translate(-224.421 -3.09)" fill="#c9a095"/>
      <path id="Path_982" data-name="Path 982" d="M254.094,33.649c-12.829,3.728-11.958,12.643-11.958,12.643a80.385,80.385,0,0,0,.232,13.471,4.285,4.285,0,0,0-5.412-1.142c-4.317,2.154-.228,15.908,6.431,14.307a35.805,35.805,0,0,0,2.953,9.511c2.12,3.855,10.787,9.413,18.209,9.925s16.575-4.112,16.761-12.816c.256-12.053-2.86-37.849-2.86-37.849S275.341,27.476,254.094,33.649Z" transform="translate(-235.178 -21.61)" fill="#e5beb1"/>
      <path id="Path_983" data-name="Path 983" d="M266.439,37.717c-3.51.2-9.084-.694-12.6-.57-.01-.352.1,2.577.115,2.6.672,1.488,1.4,15.217,1.4,15.217,3.539-.039,3.608,2.8,3.608,2.8l.841,6.289,3.483-.572-.579-13.388a6.982,6.982,0,0,0,2.956-3.586S266.037,40.132,266.439,37.717Z" transform="translate(-251.877 -18.134)" fill="#263d49"/>
      <path id="Path_984" data-name="Path 984" d="M245.721,43.782s6.2-5.488,12.782-.618" transform="translate(-230.198 -15.343)" fill="none" stroke="#172d3a" stroke-miterlimit="10" stroke-width="1.454"/>
      <path id="Path_985" data-name="Path 985" d="M236.519,44.762s4.71-6,10.064-.276" transform="translate(-202.706 -14.744)" fill="none" stroke="#172d3a" stroke-miterlimit="10" stroke-width="1.373"/>
      <path id="Path_986" data-name="Path 986" d="M259.5,63.352s-10.562-1.645-12.027,1.713-1.833,6.971-4.8,5.825-4.016-27.367-4.016-27.367l-3.434,8.91s-4.906,34.973,16.214,34.775c22.151-.208,25.053-6.7,22.513-18.253,0,0-2.378,1.3-3.747-1.784S271.058,61.189,259.5,63.352Z" transform="translate(-227.808 -13.699)" fill="#263d49"/>
      <path id="Path_987" data-name="Path 987" d="M235.132,47.516s-2.547-11.151,7.153-10.8A26.066,26.066,0,0,1,262.657,25.9l-5.571,3.49s7.59-5.531,21.286-1.308a7.665,7.665,0,0,1-6.091,5.754s6.148-1.33,7.505-2.569c0,0,.112,8.851-4.468,11.137s-22.616-4.84-28.392,4.205-10.748-.443-10.748-.443" transform="translate(-233.051 -25.9)" fill="#263d49"/>
      <path id="Path_988" data-name="Path 988" d="M245.481,44.3l14.451.623S261,56.93,251.472,56.416,245.481,44.3,245.481,44.3Z" transform="translate(-230.171 -13.162)" fill="#e3edfd" stroke="#e0aa69" stroke-miterlimit="10" stroke-width="0.631"/>
      <path id="Path_989" data-name="Path 989" d="M261.642,44.739l-16.724-.894-.352,1.911,16.81.529Z" transform="translate(-231.38 -13.476)" fill="#e0aa69"/>
      <path id="Path_990" data-name="Path 990" d="M247.967,44.547l-13.813.176S233.11,57.947,242.6,56.95,247.967,44.547,247.967,44.547Z" transform="translate(-200.918 -12.99)" fill="#e3edfd" stroke="#e0aa69" stroke-miterlimit="10" stroke-width="0.631"/>
      <path id="Path_991" data-name="Path 991" d="M233.357,44.534l16.056-.494.449,1.891-16.174.2Z" transform="translate(-200.633 -13.341)" fill="#e0aa69"/>
      <path id="Path_992" data-name="Path 992" d="M239.571,61.361,240.643,46.4l5.945,12.868Z" transform="translate(-207.876 -11.709)" fill="#c9a095"/>
      <path id="Path_993" data-name="Path 993" d="M265.628,45.753l-11.181,4.874.006-1.7,11.5-5.083Z" transform="translate(-252.414 -13.476)" fill="#e0aa69"/>
      <path id="Path_994" data-name="Path 994" d="M242.793,46.466a3,3,0,0,1,3.677-.093" transform="translate(-213.21 -12.132)" fill="none" stroke="#e0aa69" stroke-miterlimit="10" stroke-width="0.759"/>
      <path id="Path_995" data-name="Path 995" d="M253.261,59.189a12,12,0,0,1-11.552-1.765" transform="translate(-218.166 -4.075)" fill="none" stroke="#04090c" stroke-miterlimit="10" stroke-width="1.138"/>
    </g>
    <path id="Path_996" data-name="Path 996" d="M236.543,163.084s31.589,16.146,59.341,6.187c0,0,2.621-57.417,4.062-88.657a135.5,135.5,0,0,0-33.736-6.346l-2.036,6.785-1.719-6.889s-26.255,2.4-36.134,4.984C226.32,79.147,232.888,139.282,236.543,163.084Z" transform="translate(-197.539 7.513)" fill="#d3e6ff"/>
    <path id="Path_997" data-name="Path 997" d="M248.474,77.5l8.981,8.558,4.948-9.87-9.671-4.962Z" transform="translate(-198.186 5.483)" fill="#fff"/>
    <path id="Path_998" data-name="Path 998" d="M251.959,77.455l-7.108,7.937-6.84-9.413,10.01-4.379Z" transform="translate(-170.278 5.738)" fill="#fff"/>
    <path id="Path_999" data-name="Path 999" d="M204.75,77.9s29.91,6.573,45.374,13.435c0,0,5.767,9.861.191,16.729l-51.663-6.1Z" transform="translate(-105.182 10.102)" fill="#d3e6ff"/>
    <path id="Path_1000" data-name="Path 1000" d="M228.72,131.752s5.241,16.664,22.545,22.445l9.841-14.119,7.274,14.974s14.322-6.5,19.682-17.113L261.075,119.42Z" transform="translate(-190.425 38.846)" fill="#fff"/>
    <path id="Path_1001" data-name="Path 1001" d="M196.71,97.448s8.152-19.228,9.188-30.4c0,0,6.666-2.892,10.958-.652,0,0,1.071,28.531-4.657,39.739,0,0-3.275,11.7-8.177,10.606C186.26,112.772,196.71,97.448,196.71,97.448Z" transform="translate(-61.189 1.548)" fill="#d3e6ff"/>
    <path id="Path_1002" data-name="Path 1002" d="M249.129,81.883a1.389,1.389,0,1,1-1.516-1.251A1.387,1.387,0,0,1,249.129,81.883Z" transform="translate(-181.486 11.988)" fill="#f2f0f0"/>
    <path id="Path_1003" data-name="Path 1003" d="M249,89.411a1.39,1.39,0,1,1-1.516-1.251A1.388,1.388,0,0,1,249,89.411Z" transform="translate(-181.127 17.2)" fill="#f2f0f0"/>
    <path id="Path_1004" data-name="Path 1004" d="M248.448,98.784a1.39,1.39,0,1,1-1.516-1.251A1.392,1.392,0,0,1,248.448,98.784Z" transform="translate(-179.664 23.689)" fill="#f2f0f0"/>
    <path id="Path_1005" data-name="Path 1005" d="M248.179,107.713a1.39,1.39,0,1,1-1.516-1.251A1.388,1.388,0,0,1,248.179,107.713Z" transform="translate(-178.945 29.871)" fill="#f2f0f0"/>
    <path id="Path_1006" data-name="Path 1006" d="M248.087,117.248A1.39,1.39,0,1,1,246.57,116,1.388,1.388,0,0,1,248.087,117.248Z" transform="translate(-178.7 36.472)" fill="#f2f0f0"/>
    <path id="Path_1007" data-name="Path 1007" d="M248.55,125.894a1.389,1.389,0,1,1-1.516-1.251A1.388,1.388,0,0,1,248.55,125.894Z" transform="translate(-179.94 42.458)" fill="#f2f0f0"/>
    <rect id="Rectangle_22" data-name="Rectangle 22" width="17.62" height="2.462" transform="matrix(-0.997, -0.075, 0.075, -0.997, 55.096, 120.122)" fill="#fff"/>
    <path id="Path_1008" data-name="Path 1008" d="M292.224,76.832S271.44,106.651,265,124.368c0,0,6.6,7.407,16.424,8.237l18.2-26.233Z" transform="translate(-262.662 9.361)" fill="#d3e6ff"/>
    <path id="Path_1009" data-name="Path 1009" d="M313.318,145.96l-18.826,38.935-10.269-.428-36.8-22.676,21.821-38.507Z" transform="translate(-246.634 41.521)" fill="#e8b782"/>
    <path id="Path_1010" data-name="Path 1010" d="M265.529,133.444l10.654,5.482L257.357,177.86l-9.928-.413Z" transform="translate(-210.063 48.555)" fill="#211f1e" opacity="0.2"/>
    <path id="Path_1011" data-name="Path 1011" d="M263.344,73.789a206.834,206.834,0,0,1-27.133,111.8" transform="translate(-178.772 7.254)" fill="none" stroke="#e0aa69" stroke-miterlimit="10" stroke-width="3.034"/>
    <path id="Path_1012" data-name="Path 1012" d="M304.468,141.091,293.3,167.537l-39.577-18.612L268.7,122.4Z" transform="translate(-248.437 40.908)" fill="#e0aa69"/>
    <path id="Path_1013" data-name="Path 1013" d="M282.541,145.605l-1.406,4.014L269.3,144.486l2.689-3.793Z" transform="translate(-252.877 53.574)" fill="#fff"/>
    <path id="Path_1014" data-name="Path 1014" d="M268.255,125.815l2.691,3.276s12.554.878,9.682,2.318a27.665,27.665,0,0,1-5.708,1.738s8.8,11.293,8.186,12.684-7.521-5.849-7.521-5.849,8.165,8.869,7.115,10.623-9.4-8.583-9.4-8.583,6.351,10.733,5.651,11.12c-1.782.985-8.822-9.448-8.822-9.448s3.49,7.113,2.411,8.3-12.467-20.8-12.467-20.8Z" transform="translate(-237.85 43.273)" fill="#e5beb1"/>
    <path id="Path_1015" data-name="Path 1015" d="M287.507,113.442s5.182,21.582,12.317,31.846c0,0-2.61,7.309-7.876,8.48,0,0-20.716-22.95-23.879-36.615,0,0,3.872-13.511,7.016-18.142S287.507,113.442,287.507,113.442Z" transform="translate(-268.069 24.215)" fill="#d3e6ff"/>
    <path id="Path_1016" data-name="Path 1016" d="M236.424,49.742s4.063-7.915,7.915-.428" transform="translate(-160.057 -11.919)" fill="none" stroke="#172d3a" stroke-miterlimit="10" stroke-width="0.758"/>
    <path id="Path_1017" data-name="Path 1017" d="M247.548,49.805s3.625-7.915,7.06-.428" transform="translate(-188.91 -11.875)" fill="none" stroke="#172d3a" stroke-miterlimit="10" stroke-width="0.716"/>
  </g>
</svg>
