<svg id="notification-outline-badged" xmlns="http://www.w3.org/2000/svg" width="24.001" height="25" viewBox="0 0 24.001 25">
  <path id="Path_1079" data-name="Path 1079" d="M17.333,33.713A2.006,2.006,0,0,0,19.271,32H15.32a2.006,2.006,0,0,0,2.013,1.713Z" transform="translate(-6.103 -8.713)"/>
  <path id="Path_1080" data-name="Path 1080" d="M25.18,21.347a10.817,10.817,0,0,1-1.885-2.2,9.488,9.488,0,0,1-1.014-3.613V11.822a8.2,8.2,0,0,0-.12-1.345,5.589,5.589,0,0,1-1.683-.631,6.678,6.678,0,0,1,.3,1.983v3.711a10.7,10.7,0,0,0,1.239,4.394,12.147,12.147,0,0,0,1.833,2.254H4.612a12.147,12.147,0,0,0,1.833-2.254,10.7,10.7,0,0,0,1.239-4.394V11.822a6.611,6.611,0,0,1,6.6-6.641,6.468,6.468,0,0,1,3.576,1.082,5.627,5.627,0,0,1-.2-1.315V4.476a7.948,7.948,0,0,0-2.494-.751V2.778a1,1,0,1,0-2.006,0v.984a8.12,8.12,0,0,0-6.986,8.06v3.711a9.488,9.488,0,0,1-1.014,3.613,10.817,10.817,0,0,1-1.855,2.2.751.751,0,0,0-.255.563v1.022a.751.751,0,0,0,.751.751H24.684a.751.751,0,0,0,.751-.751V21.911A.751.751,0,0,0,25.18,21.347Z" transform="translate(-3.05 -1.193)"/>
  <path id="Path_1081" data-name="Path 1081" d="M32.512,4.756A3.756,3.756,0,1,1,28.756,1,3.756,3.756,0,0,1,32.512,4.756Z" transform="translate(-8.511 -1)" fill="#ff3d3d"/>
</svg>
