<svg xmlns="http://www.w3.org/2000/svg" width="29.733" height="22.302" viewBox="0 0 29.733 22.302">
  <g id="arrow-repeat" transform="translate(0.002 -4.497)">
    <path id="Path_1117" data-name="Path 1117" d="M5.3,15.629a.929.929,0,0,0-1.316,0L.271,19.345A.93.93,0,1,0,1.586,20.66L4.645,17.6,7.7,20.661A.93.93,0,1,0,9.02,19.346L5.3,15.629ZM29.458,13.77a.929.929,0,0,0-1.316,0l-3.058,3.061L22.026,13.77a.93.93,0,1,0-1.316,1.316L24.427,18.8a.929.929,0,0,0,1.316,0l3.716-3.716a.929.929,0,0,0,0-1.316Z" transform="translate(0 -1.567)" fill-rule="evenodd"/>
    <path id="Path_1118" data-name="Path 1118" d="M15.649,6.358A9.282,9.282,0,0,0,7.86,10.581.929.929,0,0,1,6.3,9.566,11.149,11.149,0,0,1,26.8,15.648a.93.93,0,1,1-1.86,0,9.291,9.291,0,0,0-9.291-9.291ZM5.429,14.719a.929.929,0,0,1,.929.929,9.291,9.291,0,0,0,17.08,5.067.929.929,0,1,1,1.555,1.015A11.149,11.149,0,0,1,4.5,15.648a.929.929,0,0,1,.931-.929Z" transform="translate(-0.784 0)" fill-rule="evenodd"/>
  </g>
</svg>
