<svg xmlns="http://www.w3.org/2000/svg" width="22.997" height="23" viewBox="0 0 22.997 23">
  <g id="svgexport-6_6_" data-name="svgexport-6 (6)" transform="translate(-2.009 -2)">
    <g id="Analysis-report-document-develop-infromation" transform="translate(2.009 2)">
      <path id="Path_1106" data-name="Path 1106" d="M24.894,6.328,20.678,2.111A.4.4,0,0,0,20.406,2H10.822a1.153,1.153,0,0,0-1.15,1.15V5.469a8.04,8.04,0,0,0,0,16.062V23.85A1.153,1.153,0,0,0,10.822,25H23.856a1.153,1.153,0,0,0,1.15-1.15V6.6A.4.4,0,0,0,24.894,6.328ZM20.789,3.307,23.7,6.217H21.172a.383.383,0,0,1-.383-.383ZM2.772,13.5a7.292,7.292,0,0,1,6.9-7.272v7.115L4.651,18.365A7.237,7.237,0,0,1,2.772,13.5Zm2.419,5.4,5.022-5.022h7.115A7.269,7.269,0,0,1,5.191,18.9ZM24.239,23.85a.383.383,0,0,1-.383.383H10.822a.383.383,0,0,1-.383-.383V21.531A8.055,8.055,0,0,0,18.106,13.5a.383.383,0,0,0-.383-.383H10.439V3.15a.383.383,0,0,1,.383-.383h9.2V5.833a1.153,1.153,0,0,0,1.15,1.15h3.067Z" transform="translate(-2.009 -2)" fill="#353535"/>
      <path id="Path_1107" data-name="Path 1107" d="M26.383,7A.383.383,0,0,0,26,7.383V15.05a.383.383,0,0,0,.383.383H34.05a.383.383,0,0,0,.383-.383A8.059,8.059,0,0,0,26.383,7Zm.383,7.667V7.778a7.29,7.29,0,0,1,6.889,6.889Z" transform="translate(-16.803 -5.083)" fill="#353535"/>
      <path id="Path_1108" data-name="Path 1108" d="M43.45,40a3.45,3.45,0,1,0,3.45,3.45A3.45,3.45,0,0,0,43.45,40Zm0,6.133a2.683,2.683,0,1,1,2.683-2.683A2.683,2.683,0,0,1,43.45,46.133Z" transform="translate(-25.437 -25.433)" fill="#353535"/>
      <path id="Path_1109" data-name="Path 1109" d="M44.714,47.322l-.879-.879-.542.542,1.15,1.15a.383.383,0,0,0,.542,0l2.3-2.3-.542-.542Z" transform="translate(-27.467 -28.697)" fill="#353535"/>
      <path id="Path_1110" data-name="Path 1110" d="M50,19h3.067v.767H50Z" transform="translate(-31.603 -12.483)" fill="#353535"/>
      <path id="Path_1111" data-name="Path 1111" d="M50,25h3.067v.767H50Z" transform="translate(-31.603 -16.183)" fill="#353535"/>
      <path id="Path_1112" data-name="Path 1112" d="M50,31h3.067v.767H50Z" transform="translate(-31.603 -19.883)" fill="#353535"/>
    </g>
  </g>
</svg>
