<svg xmlns="http://www.w3.org/2000/svg" width="20.85" height="24" viewBox="0 0 20.85 24">
  <g id="svgexport-6_3_" data-name="svgexport-6 (3)" transform="translate(-6.256 -14)" opacity="0.62">
    <path id="Path_1100" data-name="Path 1100" d="M339.516,217.957a1.059,1.059,0,1,1-1.059-1.059A1.059,1.059,0,0,1,339.516,217.957Zm0,0" transform="translate(-321.341 -188.902)" fill="#353535"/>
    <path id="Path_1101" data-name="Path 1101" d="M300.639,72.3a3.4,3.4,0,0,0-3.4,3.4h0a.926.926,0,1,0,1.852,0,1.554,1.554,0,1,1,1.554,1.555.926.926,0,0,0-.926.926v.992a.926.926,0,0,0,1.852,0v-.194a3.406,3.406,0,0,0-.927-6.684Zm0,0" transform="translate(-283.665 -54.106)" fill="#353535"/>
    <path id="Path_1103" data-name="Path 1103" d="M209.523,0H196.929A4.126,4.126,0,0,0,192.8,4.128v18.89a.981.981,0,0,0,1.568.784l3.937-2.952h11.218a4.126,4.126,0,0,0,4.128-4.128V4.128A4.126,4.126,0,0,0,209.523,0Zm2.169,16.722a2.167,2.167,0,0,1-2.169,2.169H197.978a.981.981,0,0,0-.588.2l-2.63,1.973V4.128a2.167,2.167,0,0,1,2.169-2.169h12.594a2.167,2.167,0,0,1,2.169,2.169Zm0,0" transform="translate(-186.545 14)" fill="#353535"/>
  </g>
</svg>
