<svg xmlns="http://www.w3.org/2000/svg" width="23.647" height="24.317" viewBox="0 0 23.647 24.317">
  <g id="svgexport-6_5_" data-name="svgexport-6 (5)" transform="translate(-6.409)">
    <g id="Group_824" data-name="Group 824" transform="translate(6.409)">
      <g id="Group_823" data-name="Group 823" transform="translate(0)">
        <path id="Path_1104" data-name="Path 1104" d="M26.809,11.12h0V4.987a2.669,2.669,0,0,0-2.651-2.662h-.33V1.909a1.883,1.883,0,1,0-3.766,0v.416h-6.9V1.909a1.909,1.909,0,1,0-3.818,0v.416H9.053A2.662,2.662,0,0,0,6.409,4.987V19.069a2.663,2.663,0,0,0,2.644,2.662h8.3a7.187,7.187,0,1,0,9.46-10.612Zm-5.7-9.21a.825.825,0,0,1,.81-.84h.022a.833.833,0,0,1,.842.824q0,.008,0,.016V3.947H21.108Zm-10.723,0a.849.849,0,0,1,.858-.84h0a.854.854,0,0,1,.866.84V3.947H10.384ZM7.455,4.987a1.615,1.615,0,0,1,1.6-1.615h.285v1.12a.511.511,0,0,0,.53.5h2.752a.516.516,0,0,0,.536-.5V3.371h6.9v1.12a.488.488,0,0,0,.473.5h2.781a.5.5,0,0,0,.511-.478c0-.008,0-.015,0-.023V3.371h.33a1.622,1.622,0,0,1,1.605,1.615v1.68H7.455Zm1.6,15.7a1.616,1.616,0,0,1-1.6-1.616V7.713H25.763v2.838a7.193,7.193,0,0,0-9.139,10.134ZM22.87,23.262a6.135,6.135,0,1,1,6.135-6.135h0A6.142,6.142,0,0,1,22.87,23.262Z" transform="translate(-6.409)" fill="#353535"/>
      </g>
    </g>
    <g id="Group_826" data-name="Group 826" transform="translate(21.997 13.458)">
      <g id="Group_825" data-name="Group 825">
        <path id="Path_1105" data-name="Path 1105" d="M307.747,260.948h-2.292V257.8a.523.523,0,1,0-1.046,0v3.67a.532.532,0,0,0,.533.524h2.8a.523.523,0,1,0,0-1.046Z" transform="translate(-304.409 -257.278)" fill="#353535"/>
      </g>
    </g>
  </g>
</svg>
