<svg xmlns="http://www.w3.org/2000/svg" width="22.997" height="23.619" viewBox="0 0 22.997 23.619">
  <g id="settings" transform="translate(-2.715 -2.295)" opacity="0.7">
    <path id="Path_1113" data-name="Path 1113" d="M23.514,14.747V13.453l1.624-1.421a1.692,1.692,0,0,0,.321-2.157l-2-3.384a1.705,1.705,0,0,0-2-.761L19.4,6.423a9.6,9.6,0,0,0-1.108-.635l-.432-2.132A1.692,1.692,0,0,0,16.17,2.295H12.211a1.692,1.692,0,0,0-1.692,1.362l-.432,2.132a9.711,9.711,0,0,0-1.117.635L6.958,5.7a1.692,1.692,0,0,0-.541-.05,1.692,1.692,0,0,0-1.463.846l-2,3.384A1.692,1.692,0,0,0,3.3,12l1.6,1.463v1.294L3.3,16.177a1.692,1.692,0,0,0-.347,2.157l2,3.384a1.705,1.705,0,0,0,2,.761l2.056-.693a9.6,9.6,0,0,0,1.108.635l.432,2.132a1.692,1.692,0,0,0,1.692,1.362H16.24a1.692,1.692,0,0,0,1.692-1.362l.432-2.132a9.712,9.712,0,0,0,1.117-.635l2.048.693a1.705,1.705,0,0,0,2-.761l1.929-3.384a1.692,1.692,0,0,0-.347-2.124ZM22,20.872l-2.9-.981A7.5,7.5,0,0,1,16.8,21.219l-.6,3.037H12.212l-.6-3a7.918,7.918,0,0,1-2.284-1.328l-2.909.947-2-3.384,2.3-2.03a7.529,7.529,0,0,1,0-2.648l-2.3-2.09,2-3.384,2.9.981A7.5,7.5,0,0,1,11.612,6.99l.6-3.037H16.2l.6,3A7.918,7.918,0,0,1,19.09,8.284L22,7.337l2,3.384-2.3,2.03a7.529,7.529,0,0,1,0,2.648l2.3,2.09Z" transform="translate(0 0)" fill="#353535"/>
    <path id="Path_1114" data-name="Path 1114" d="M16.326,21.4a5.025,5.025,0,1,1,3.6-1.472A5.076,5.076,0,0,1,16.326,21.4Zm0-8.459a3.308,3.308,0,1,0,2.416.968,3.308,3.308,0,0,0-2.416-.968Z" transform="translate(-2.117 -2.221)" fill="#353535"/>
  </g>
</svg>
