<svg xmlns="http://www.w3.org/2000/svg" width="16.933" height="23.707" viewBox="0 0 16.933 23.707">
  <g id="user" transform="translate(-6.75 -2.25)">
    <path id="Path_1082" data-name="Path 1082" d="M16.052,3.943a4.233,4.233,0,1,1-4.233,4.233,4.233,4.233,0,0,1,4.233-4.233m0-1.693a5.927,5.927,0,1,0,5.927,5.927A5.927,5.927,0,0,0,16.052,2.25Z" transform="translate(-0.835 0)"/>
    <path id="Path_1083" data-name="Path 1083" d="M23.683,30.41H21.99V26.177a4.233,4.233,0,0,0-4.233-4.233h-5.08a4.233,4.233,0,0,0-4.233,4.233V30.41H6.75V26.177a5.927,5.927,0,0,1,5.927-5.927h5.08a5.927,5.927,0,0,1,5.927,5.927Z" transform="translate(0 -4.453)"/>
  </g>
</svg>
