<svg xmlns="http://www.w3.org/2000/svg" width="20.09" height="14.733" viewBox="0 0 20.09 14.733">
  <g id="view" transform="translate(-1.126 -5.625)">
    <path id="Path_1125" data-name="Path 1125" d="M21.177,12.764A11.177,11.177,0,0,0,11.171,5.625,11.177,11.177,0,0,0,1.166,12.764a.67.67,0,0,0,0,.455,11.177,11.177,0,0,0,10.005,7.139A11.177,11.177,0,0,0,21.177,13.22a.67.67,0,0,0,0-.455ZM11.171,19.019a9.945,9.945,0,0,1-8.659-6.027,9.944,9.944,0,0,1,8.659-6.027,9.944,9.944,0,0,1,8.659,6.027A9.945,9.945,0,0,1,11.171,19.019Z" fill="#353535"/>
    <path id="Path_1126" data-name="Path 1126" d="M15.268,11.25a4.018,4.018,0,1,0,4.018,4.018A4.018,4.018,0,0,0,15.268,11.25Zm0,6.7a2.679,2.679,0,1,1,2.679-2.679A2.679,2.679,0,0,1,15.268,17.947Z" transform="translate(-4.097 -2.276)" fill="#353535"/>
  </g>
</svg>
